HIERARCHY
ROOT Hips
{
  OFFSET 0.0000 0.0000 0.0000
  CHANNELS 6 Xposition Yposition Zposition Zrotation Xrotation Yrotation
  JOINT LeftHip
  {
    OFFSET 3.7500 0.0000 0.0000
    CHANNELS 3 Zrotation Xrotation Yrotation
    JOINT LeftKnee
    {
      OFFSET 0.0000 -15.5000 0.0000
      CHANNELS 3 Zrotation Xrotation Yrotation
      JOINT LeftAnkle
      {
        OFFSET 0.0000 -15.5000 0.0000
        CHANNELS 3 Zrotation Xrotation Yrotation
        End Site
        {
          OFFSET 0.0000 -2.5296 0.0000
        }
      }
    }
  }
  JOINT RightHip
  {
    OFFSET -3.7500 0.0000 0.0000
    CHANNELS 3 Zrotation Xrotation Yrotation
    JOINT RightKnee
    {
      OFFSET -0.0000 -15.5000 0.0000
      CHANNELS 3 Zrotation Xrotation Yrotation
      JOINT RightAnkle
      {
        OFFSET 0.0000 -15.5000 0.0000
        CHANNELS 3 Zrotation Xrotation Yrotation
        End Site
        {
          OFFSET 0.0000 -2.5296 0.0000
        }
      }
    }
  }
  JOINT Chest
  {
    OFFSET 0.0000 4.5700 0.0000
    CHANNELS 3 Zrotation Xrotation Yrotation
    JOINT Chest2
    {
      OFFSET 0.0000 8.1184 -0.0000
      CHANNELS 3 Zrotation Xrotation Yrotation
      JOINT LeftCollar
      {
        OFFSET 1.5000 9.7058 0.5000
        CHANNELS 3 Zrotation Xrotation Yrotation
        JOINT LeftShoulder
        {
          OFFSET 5.2500 0.0000 0.0000
          CHANNELS 3 Zrotation Xrotation Yrotation
          JOINT LeftElbow
          {
            OFFSET 0.0000 -11.0000 0.0000
            CHANNELS 3 Zrotation Xrotation Yrotation
            JOINT LeftWrist
            {
              OFFSET 0.0000 -9.8200 0.0000
              CHANNELS 3 Zrotation Xrotation Yrotation
              End Site
              {
                OFFSET 0.0000 -7.0000 0.0000
              }
            }
          }
        }
      }
      JOINT RightCollar
      {
        OFFSET -1.5000 9.7058 0.5000
        CHANNELS 3 Zrotation Xrotation Yrotation
        JOINT RightShoulder
        {
          OFFSET -5.2500 -0.0000 0.0000
          CHANNELS 3 Zrotation Xrotation Yrotation
          JOINT RightElbow
          {
            OFFSET -0.0000 -11.0000 -0.0000
            CHANNELS 3 Zrotation Xrotation Yrotation
            JOINT RightWrist
            {
              OFFSET 0.0000 -9.8200 0.0000
              CHANNELS 3 Zrotation Xrotation Yrotation
              End Site
              {
                OFFSET -0.0000 -7.0000 0.0000
              }
            }
          }
        }
      }
      JOINT Neck
      {
        OFFSET 0.0000 9.5000 0.0000
        CHANNELS 3 Zrotation Xrotation Yrotation
        JOINT Head
        {
          OFFSET 0.0000 5.2180 0.0000
          CHANNELS 3 Zrotation Xrotation Yrotation
          End Site
          {
            OFFSET 0.0000 4.1400 0.0000
          }
        }
      }
    }
  }
}
MOTION
Frames:	15
Frame Time:	0.033333
-1.2810 16.7882 -6.1666 3.47 -27.96 24.54 46.98 -70.80 43.78 172.35 80.69 164.19 14.90 -4.57 -1.85 -19.18 -81.93 -16.32 2.62 6.98 -29.45 10.90 12.29 -2.09 4.61 20.66 -3.23 -17.13 19.43 5.20 -23.22 3.83 -3.14 55.13 -24.35 -52.19 110.01 -75.96 109.36 3.63 10.58 -5.12 29.25 1.11 -4.15 -52.29 -32.89 28.90 -162.28 -64.56 -162.32 -8.28 16.89 -27.33 6.37 27.73 -0.60 22.54 -53.81 10.39 
-1.2707 16.7970 -6.1789 3.19 -27.51 24.56 47.60 -71.29 44.42 172.29 80.75 164.38 14.89 -4.55 -1.86 -22.06 -82.31 -19.27 2.75 7.11 -30.01 10.93 12.20 -2.08 4.52 20.72 -3.22 -17.10 19.53 5.19 -23.20 3.84 -3.18 55.07 -24.39 -52.39 111.10 -75.63 110.49 3.50 10.64 -4.99 29.19 1.13 -4.11 -52.05 -32.96 28.81 -162.34 -64.64 -162.36 -8.16 16.71 -27.59 6.56 27.72 -0.62 22.69 -54.20 10.66 
-1.2591 16.8068 -6.1993 2.97 -27.09 24.59 47.93 -71.74 44.79 172.14 80.87 164.61 14.96 -4.50 -1.86 -25.44 -82.65 -22.77 2.91 7.29 -30.66 11.02 12.00 -2.07 4.45 20.83 -3.25 -17.16 19.59 5.19 -23.13 3.86 -3.24 54.99 -24.43 -52.56 112.37 -75.27 111.81 3.38 10.86 -4.97 29.17 1.15 -4.06 -51.86 -33.10 28.77 -162.32 -64.70 -162.34 -8.10 16.57 -27.63 6.81 27.71 -0.67 22.87 -54.57 10.92 
-1.2453 16.8212 -6.2198 2.82 -26.72 24.61 48.05 -72.09 44.99 172.01 81.02 164.81 15.07 -4.48 -1.85 -28.60 -82.91 -26.04 3.06 7.45 -31.17 10.93 11.74 -2.01 4.31 21.02 -3.26 -17.19 19.64 5.17 -23.05 3.85 -3.24 54.82 -24.51 -52.78 113.59 -74.92 113.08 3.34 11.07 -5.01 29.13 1.18 -4.00 -51.69 -33.30 28.84 -162.28 -64.74 -162.29 -8.15 16.64 -27.44 7.02 27.65 -0.69 23.08 -54.97 11.22 
-1.2355 16.8433 -6.2341 2.64 -26.44 24.46 48.31 -72.30 45.24 171.79 81.13 165.16 15.12 -4.50 -1.84 -30.28 -83.12 -27.85 3.19 7.55 -31.71 10.88 11.53 -1.96 4.17 21.32 -3.23 -17.22 19.62 5.22 -23.01 3.84 -3.21 54.61 -24.51 -53.04 114.80 -74.56 114.36 3.40 11.24 -5.21 29.10 1.19 -3.96 -51.55 -33.51 28.99 -162.24 -64.76 -162.26 -8.25 16.65 -27.21 7.19 27.55 -0.70 23.45 -55.36 11.57 
-1.2417 16.8670 -6.2372 2.33 -26.24 24.19 49.02 -72.44 45.78 171.43 81.15 165.68 15.03 -4.54 -1.82 -30.88 -83.33 -28.58 3.31 7.62 -32.43 10.89 11.41 -1.94 4.14 21.63 -3.18 -17.28 19.59 5.33 -23.03 3.83 -3.19 54.54 -24.48 -53.34 116.13 -74.14 115.75 3.50 11.57 -5.74 29.14 1.20 -3.96 -51.51 -33.72 29.08 -162.28 -64.69 -162.30 -8.21 16.69 -27.10 7.35 27.45 -0.72 23.87 -55.80 11.92 
-1.2526 16.8869 -6.2310 2.04 -26.02 24.00 49.81 -72.63 46.43 171.16 81.13 166.09 14.93 -4.58 -1.81 -31.96 -83.54 -29.77 3.41 7.65 -33.14 10.75 11.40 -1.89 4.09 21.87 -3.13 -17.27 19.55 5.39 -23.12 3.84 -3.19 54.58 -24.40 -53.68 117.33 -73.70 117.03 3.72 11.93 -6.41 29.21 1.21 -3.94 -51.52 -33.87 29.16 -162.29 -64.59 -162.32 -8.14 16.68 -26.99 7.48 27.37 -0.76 24.14 -56.21 12.15 
-1.2554 16.9040 -6.2215 1.86 -25.78 23.92 50.36 -72.81 46.94 171.07 81.13 166.26 14.88 -4.69 -1.78 -33.50 -83.70 -31.36 3.48 7.66 -33.74 10.58 11.48 -1.86 4.04 22.06 -3.13 -17.32 19.52 5.42 -23.11 3.85 -3.20 54.57 -24.29 -54.01 118.32 -73.33 118.07 4.03 12.25 -6.95 29.24 1.22 -3.92 -51.49 -33.98 29.24 -162.30 -64.52 -162.34 -8.26 16.52 -26.91 7.62 27.28 -0.78 24.37 -56.58 12.40 
-1.2539 16.9203 -6.2191 1.72 -25.47 23.86 50.94 -72.99 47.55 171.07 81.19 166.29 14.94 -4.72 -1.77 -35.40 -83.89 -33.22 3.49 7.64 -34.31 10.56 11.63 -1.86 3.97 22.13 -3.13 -17.40 19.57 5.45 -23.04 3.84 -3.21 54.52 -24.27 -54.34 118.90 -73.05 118.70 4.31 12.50 -7.41 29.24 1.21 -3.94 -51.49 -34.14 29.26 -162.32 -64.52 -162.35 -8.37 16.40 -26.85 7.73 27.14 -0.80 24.61 -56.92 12.60 
-1.2487 16.9355 -6.2109 1.63 -25.17 23.80 51.62 -73.10 48.29 171.22 81.22 166.12 15.06 -4.75 -1.77 -36.74 -84.09 -34.52 3.48 7.58 -34.74 10.51 11.75 -1.87 3.82 22.13 -3.09 -17.34 19.69 5.43 -23.03 3.83 -3.18 54.49 -24.28 -54.64 119.26 -72.82 119.10 4.47 12.66 -7.86 29.18 1.21 -3.94 -51.56 -34.31 29.24 -162.37 -64.52 -162.40 -8.31 16.50 -26.94 7.78 26.95 -0.82 24.67 -57.14 12.67 
-1.2421 16.9494 -6.1994 1.61 -24.98 23.79 51.96 -73.13 48.70 171.35 81.23 165.93 15.15 -4.78 -1.77 -37.66 -84.20 -35.44 3.48 7.56 -34.86 10.49 11.84 -1.87 3.72 22.26 -3.10 -17.37 19.67 5.41 -22.99 3.80 -3.13 54.47 -24.28 -54.90 119.48 -72.65 119.34 4.54 12.72 -8.33 29.22 1.21 -3.93 -51.72 -34.40 29.17 -162.41 -64.49 -162.44 -8.16 16.75 -27.19 7.92 26.81 -0.86 24.57 -57.25 12.66 
-1.2417 16.9573 -6.1865 1.58 -24.86 23.78 52.27 -73.15 49.04 171.40 81.22 165.81 15.31 -4.80 -1.77 -38.26 -84.29 -36.05 3.50 7.55 -34.89 10.56 11.96 -1.89 3.77 22.45 -3.13 -17.49 19.51 5.45 -22.95 3.82 -3.18 54.49 -24.27 -55.11 119.53 -72.56 119.40 4.51 12.73 -8.41 29.29 1.22 -3.92 -51.89 -34.32 29.10 -162.43 -64.46 -162.47 -8.06 16.92 -27.33 8.10 26.80 -0.95 24.43 -57.33 12.52 
-1.2450 16.9571 -6.1713 1.50 -24.75 23.73 52.69 -73.20 49.44 171.41 81.18 165.72 15.43 -4.84 -1.77 -38.54 -84.40 -36.35 3.50 7.50 -34.89 10.54 12.03 -1.89 3.83 22.50 -3.12 -17.51 19.46 5.49 -23.00 3.85 -3.26 54.62 -24.30 -55.17 119.56 -72.53 119.44 4.49 12.71 -8.02 29.29 1.23 -3.89 -51.99 -34.23 29.03 -162.44 -64.49 -162.47 -8.07 16.93 -27.13 8.14 26.80 -1.03 24.37 -57.46 12.31 
-1.2466 16.9487 -6.1600 1.43 -24.60 23.71 53.18 -73.33 49.91 171.49 81.13 165.64 15.46 -4.88 -1.78 -39.21 -84.52 -37.04 3.49 7.40 -34.87 10.55 12.09 -1.89 3.89 22.43 -3.13 -17.48 19.46 5.48 -23.02 3.89 -3.33 54.69 -24.30 -55.13 119.65 -72.54 119.53 4.41 12.81 -7.54 29.23 1.25 -3.86 -52.01 -34.18 29.03 -162.44 -64.54 -162.47 -8.23 16.87 -26.90 8.07 26.76 -1.07 24.53 -57.51 12.20 
-1.2462 16.9401 -6.1512 1.41 -24.47 23.68 53.46 -73.44 50.21 171.61 81.08 165.64 15.37 -4.95 -1.77 -39.58 -84.63 -37.42 3.48 7.34 -34.77 10.47 12.17 -1.89 3.91 22.37 -3.12 -17.44 19.42 5.47 -23.03 3.90 -3.36 54.72 -24.31 -55.15 119.63 -72.58 119.50 4.38 12.86 -7.03 29.16 1.25 -3.85 -51.97 -34.16 29.10 -162.43 -64.57 -162.45 -8.36 16.85 -26.90 7.99 26.71 -1.09 24.69 -57.47 12.10 
